<?xml version="1.0" standalone="no"?>
<!DOCTYPE svg PUBLIC "-//W3C//DTD SVG 20010904//EN"
 "http://www.w3.org/TR/2001/REC-SVG-20010904/DTD/svg10.dtd">
<svg version="1.0" xmlns="http://www.w3.org/2000/svg"
 width="512.000000pt" height="512.000000pt" viewBox="0 0 512.000000 512.000000"
 preserveAspectRatio="xMidYMid meet">

<g transform="translate(0.000000,512.000000) scale(0.100000,-0.100000)"
fill="#000000" stroke="none">
<path d="M3022 4767 c-66 -66 -73 -84 -44 -110 27 -24 38 -22 86 23 l43 40 19
-21 c41 -46 74 -62 100 -50 39 17 30 49 -36 119 -39 42 -66 62 -82 62 -16 0
-45 -21 -86 -63z"/>
<path d="M1815 4746 c-128 -31 -241 -123 -297 -243 -27 -57 -33 -83 -36 -159
-4 -81 -1 -100 27 -181 17 -50 31 -93 31 -96 0 -2 -37 -32 -83 -65 -504 -366
-807 -1001 -773 -1621 4 -69 11 -132 16 -142 5 -9 21 -20 35 -23 17 -4 25 -13
25 -29 0 -12 8 -59 17 -104 l17 -82 -75 -78 c-118 -122 -169 -208 -215 -360
-24 -77 -27 -106 -28 -228 -1 -150 14 -227 68 -349 99 -222 313 -402 557 -467
109 -30 299 -32 404 -5 91 23 235 92 305 145 32 24 61 39 70 35 724 -278 1514
-115 2057 424 312 310 504 710 552 1154 17 148 14 212 -7 231 -10 10 -23 17
-29 17 -6 0 -13 45 -16 107 -6 98 -5 108 13 120 11 8 20 25 20 38 0 43 -30
168 -66 280 -187 569 -640 1025 -1209 1214 -230 77 -508 113 -723 95 l-113 -9
-5 25 c-13 60 -37 120 -63 162 -101 160 -294 238 -476 194z m172 -296 c68 -41
87 -142 38 -205 -34 -45 -60 -59 -116 -59 -141 0 -192 186 -73 265 38 25 109
25 151 -1z m553 -349 l0 -170 -52 5 c-29 2 -97 6 -150 10 -54 3 -98 7 -98 9 0
1 15 35 34 76 18 41 44 102 56 136 21 59 25 63 69 77 59 19 80 23 114 25 l27
1 0 -169z m237 144 c43 -14 83 -28 90 -32 6 -5 33 -46 60 -93 49 -85 49 -85
118 -111 50 -20 63 -28 49 -33 -35 -11 -267 -35 -359 -37 l-90 -2 -3 167 -2
166 29 0 c17 0 65 -11 108 -25z m-1116 -410 l61 -109 -46 -96 c-143 -298 -236
-739 -236 -1119 l0 -114 -52 7 c-29 4 -54 9 -57 11 -2 2 1 22 6 44 8 31 6 58
-9 125 l-19 85 35 56 36 55 0 176 0 176 70 72 c39 40 70 79 70 87 0 9 -13 27
-28 42 l-28 27 -160 0 c-115 0 -175 4 -212 15 l-52 16 15 28 c31 61 169 236
253 319 115 117 274 239 285 221 4 -8 35 -63 68 -124z m1621 -12 c24 -38 58
-93 76 -125 36 -65 122 -263 122 -281 0 -7 -86 -61 -189 -120 -104 -60 -196
-116 -204 -125 -7 -9 -54 -86 -102 -170 l-88 -153 28 -72 c15 -40 44 -107 63
-150 19 -42 33 -79 30 -82 -2 -2 -22 0 -44 6 -65 19 -202 6 -269 -25 -32 -14
-59 -26 -61 -26 -2 0 -4 298 -4 663 l0 663 173 13 c94 6 217 20 272 30 157 28
147 31 197 -46z m227 11 c69 -26 133 -55 142 -65 14 -16 14 -28 -3 -141 -15
-97 -24 -127 -40 -140 -29 -25 -35 -23 -49 20 -20 60 -103 232 -147 305 -23
37 -39 67 -35 67 4 0 63 -21 132 -46z m-1081 0 l112 -7 0 -709 0 -709 -31 -45
-31 -45 -96 5 c-54 3 -164 8 -247 12 -82 3 -244 14 -359 25 -115 10 -216 19
-223 19 -16 0 -17 86 -2 290 23 327 81 586 191 852 l40 98 20 -25 c44 -56 133
-72 192 -36 28 18 113 147 171 260 l17 34 66 -6 c37 -4 118 -10 180 -13z
m1704 -1084 c31 -22 58 -46 62 -55 3 -8 -2 -37 -12 -63 -24 -64 -51 -68 -99
-13 -30 36 -40 41 -77 41 -50 0 -80 25 -74 62 2 18 16 28 63 45 33 12 65 22
71 22 6 1 36 -17 66 -39z m-508 -126 c13 -5 16 -26 16 -123 l0 -118 -107 -11
c-148 -16 -180 -16 -187 4 -9 22 7 38 70 75 42 24 66 48 105 105 49 73 64 83
103 68z m196 -116 c11 -18 20 -40 20 -49 0 -26 -39 -59 -70 -59 -30 0 -30 0
-30 60 0 46 4 61 18 69 28 17 41 13 62 -21z m-2446 -208 c33 -5 63 -15 68 -22
4 -7 8 -36 8 -64 l0 -50 -87 4 c-49 3 -91 9 -94 14 -9 14 23 128 36 128 5 0
37 -4 69 -10z m336 -39 c194 -18 377 -30 558 -37 l174 -7 -6 -51 c-6 -45 -2
-77 20 -178 5 -24 2 -29 -32 -43 -24 -10 -92 -20 -179 -26 -77 -6 -150 -12
-162 -14 -11 -3 -34 -25 -49 -49 l-28 -45 -79 84 c-102 110 -225 191 -364 239
-1 1 -5 34 -8 74 l-8 73 24 -5 c13 -3 76 -10 139 -15z m1920 -25 c0 -25 -4
-47 -8 -50 -14 -9 -183 40 -193 55 -7 11 10 16 89 25 53 6 100 12 105 13 4 0
7 -19 7 -43z m-683 14 c89 -54 84 -201 -8 -251 -32 -17 -100 -14 -137 5 -93
48 -95 201 -4 251 39 21 111 19 149 -5z m-1489 -196 c147 -30 265 -95 372
-204 194 -197 263 -458 189 -720 -69 -250 -269 -445 -529 -516 -87 -24 -271
-24 -360 -1 -382 100 -623 484 -544 865 21 100 52 177 108 260 167 252 469
377 764 316z"/>
<path d="M3859 713 c-63 -59 -79 -93 -59 -118 20 -25 54 -17 90 20 19 19 39
35 45 35 6 0 26 -16 45 -35 48 -49 100 -44 100 10 0 25 -118 145 -144 145 -9
0 -44 -26 -77 -57z"/>
</g>
</svg>
